<svg width="402" height="874" viewBox="0 0 402 874" fill="none" xmlns="http://www.w3.org/2000/svg">
<g clip-path="url(#clip0_74_317)">
<rect width="402" height="874" fill="black"/>
<circle cx="-125.5" cy="944.5" r="251.5" stroke="#4E4E4E" stroke-width="0.5"/>
<circle cx="549.5" cy="-69.5" r="303.5" stroke="#4E4E4E" stroke-width="0.5"/>
<circle cx="632.5" cy="-11.5" r="303.5" stroke="#4E4E4E" stroke-width="0.5"/>
<circle cx="667.5" cy="10.5" r="303.25" stroke="#4E4E4E" stroke-width="0.5"/>
<circle cx="200.5" cy="436.5" r="303.4" fill="black" fill-opacity="0.01" stroke="white" stroke-width="0.2"/>
<line x1="20.9999" y1="2.18557e-08" x2="20.9998" y2="874" stroke="white" stroke-opacity="0.1"/>
<line x1="60.9999" y1="2.18557e-08" x2="60.9998" y2="874" stroke="white" stroke-opacity="0.1"/>
<line x1="101" y1="2.18557e-08" x2="101" y2="874" stroke="white" stroke-opacity="0.1"/>
<line x1="141" y1="2.18557e-08" x2="141" y2="874" stroke="white" stroke-opacity="0.1"/>
<line x1="181" y1="2.18557e-08" x2="181" y2="874" stroke="white" stroke-opacity="0.1"/>
<line x1="221" y1="2.18557e-08" x2="221" y2="874" stroke="white" stroke-opacity="0.1"/>
<line x1="261" y1="2.18557e-08" x2="261" y2="874" stroke="white" stroke-opacity="0.1"/>
<line x1="301" y1="2.18557e-08" x2="301" y2="874" stroke="white" stroke-opacity="0.1"/>
<line x1="341" y1="2.18557e-08" x2="341" y2="874" stroke="white" stroke-opacity="0.1"/>
<line x1="381" y1="2.18557e-08" x2="381" y2="874" stroke="white" stroke-opacity="0.1"/>
<line x1="-236" y1="836.5" x2="638" y2="836.5" stroke="white" stroke-opacity="0.1"/>
<line x1="-236" y1="796.5" x2="638" y2="796.5" stroke="white" stroke-opacity="0.1"/>
<line x1="-236" y1="756.5" x2="638" y2="756.5" stroke="white" stroke-opacity="0.1"/>
<line x1="-236" y1="716.5" x2="638" y2="716.5" stroke="white" stroke-opacity="0.1"/>
<line x1="-236" y1="676.5" x2="638" y2="676.5" stroke="white" stroke-opacity="0.1"/>
<line x1="-236" y1="636.5" x2="638" y2="636.5" stroke="white" stroke-opacity="0.1"/>
<line x1="-236" y1="596.5" x2="638" y2="596.5" stroke="white" stroke-opacity="0.1"/>
<line x1="-236" y1="556.5" x2="638" y2="556.5" stroke="white" stroke-opacity="0.1"/>
<line x1="-236" y1="516.5" x2="638" y2="516.5" stroke="white" stroke-opacity="0.1"/>
<line x1="-236" y1="476.5" x2="638" y2="476.5" stroke="white" stroke-opacity="0.1"/>
<line x1="-236" y1="436.5" x2="638" y2="436.5" stroke="white" stroke-opacity="0.1"/>
<line x1="-236" y1="396.5" x2="638" y2="396.5" stroke="white" stroke-opacity="0.1"/>
<line x1="-236" y1="356.5" x2="638" y2="356.5" stroke="white" stroke-opacity="0.1"/>
<line x1="-236" y1="316.5" x2="638" y2="316.5" stroke="white" stroke-opacity="0.1"/>
<line x1="-236" y1="276.5" x2="638" y2="276.5" stroke="white" stroke-opacity="0.1"/>
<line x1="-236" y1="236.5" x2="638" y2="236.5" stroke="white" stroke-opacity="0.1"/>
<line x1="-236" y1="196.5" x2="638" y2="196.5" stroke="white" stroke-opacity="0.1"/>
<line x1="-236" y1="156.5" x2="638" y2="156.5" stroke="white" stroke-opacity="0.1"/>
<line x1="-236" y1="116.5" x2="638" y2="116.5" stroke="white" stroke-opacity="0.1"/>
<line x1="-236" y1="76.4995" x2="638" y2="76.4995" stroke="white" stroke-opacity="0.1"/>
<line x1="-236" y1="36.4995" x2="638" y2="36.4995" stroke="white" stroke-opacity="0.1"/>
<rect x="60" y="116" width="2" height="1" fill="#D9D9D9"/>
<rect x="60" y="115" width="2" height="1" fill="#D9D9D9"/>
<rect x="60" y="114" width="2" height="1" fill="#D9D9D9"/>
<rect x="60" y="117" width="2" height="1" fill="#D9D9D9"/>
<rect x="60" y="118" width="2" height="1" fill="#D9D9D9"/>
<rect x="58" y="116" width="2" height="1" fill="#D9D9D9"/>
<rect x="56" y="116" width="2" height="1" fill="#D9D9D9"/>
<rect x="62" y="116" width="2" height="1" fill="#D9D9D9"/>
<rect x="64" y="116" width="2" height="1" fill="#D9D9D9"/>
<rect x="100" y="156" width="2" height="1" fill="#D9D9D9"/>
<rect x="100" y="155" width="2" height="1" fill="#D9D9D9"/>
<rect x="100" y="154" width="2" height="1" fill="#D9D9D9"/>
<rect x="100" y="157" width="2" height="1" fill="#D9D9D9"/>
<rect x="100" y="158" width="2" height="1" fill="#D9D9D9"/>
<rect x="98" y="156" width="2" height="1" fill="#D9D9D9"/>
<rect x="96" y="156" width="2" height="1" fill="#D9D9D9"/>
<rect x="102" y="156" width="2" height="1" fill="#D9D9D9"/>
<rect x="104" y="156" width="2" height="1" fill="#D9D9D9"/>
<rect x="100" y="236" width="2" height="1" fill="#D9D9D9"/>
<rect x="100" y="235" width="2" height="1" fill="#D9D9D9"/>
<rect x="100" y="234" width="2" height="1" fill="#D9D9D9"/>
<rect x="100" y="237" width="2" height="1" fill="#D9D9D9"/>
<rect x="100" y="238" width="2" height="1" fill="#D9D9D9"/>
<rect x="98" y="236" width="2" height="1" fill="#D9D9D9"/>
<rect x="96" y="236" width="2" height="1" fill="#D9D9D9"/>
<rect x="102" y="236" width="2" height="1" fill="#D9D9D9"/>
<rect x="104" y="236" width="2" height="1" fill="#D9D9D9"/>
<rect x="60" y="316" width="2" height="1" fill="#D9D9D9"/>
<rect x="60" y="315" width="2" height="1" fill="#D9D9D9"/>
<rect x="60" y="314" width="2" height="1" fill="#D9D9D9"/>
<rect x="60" y="317" width="2" height="1" fill="#D9D9D9"/>
<rect x="60" y="318" width="2" height="1" fill="#D9D9D9"/>
<rect x="58" y="316" width="2" height="1" fill="#D9D9D9"/>
<rect x="56" y="316" width="2" height="1" fill="#D9D9D9"/>
<rect x="62" y="316" width="2" height="1" fill="#D9D9D9"/>
<rect x="64" y="316" width="2" height="1" fill="#D9D9D9"/>
<rect x="340" y="36" width="2" height="1" fill="#D9D9D9"/>
<rect x="340" y="35" width="2" height="1" fill="#D9D9D9"/>
<rect x="340" y="34" width="2" height="1" fill="#D9D9D9"/>
<rect x="340" y="37" width="2" height="1" fill="#D9D9D9"/>
<rect x="340" y="38" width="2" height="1" fill="#D9D9D9"/>
<rect x="338" y="36" width="2" height="1" fill="#D9D9D9"/>
<rect x="336" y="36" width="2" height="1" fill="#D9D9D9"/>
<rect x="342" y="36" width="2" height="1" fill="#D9D9D9"/>
<rect x="344" y="36" width="2" height="1" fill="#D9D9D9"/>
<rect x="340" y="76" width="2" height="1" fill="#D9D9D9"/>
<rect x="340" y="75" width="2" height="1" fill="#D9D9D9"/>
<rect x="340" y="74" width="2" height="1" fill="#D9D9D9"/>
<rect x="340" y="77" width="2" height="1" fill="#D9D9D9"/>
<rect x="340" y="78" width="2" height="1" fill="#D9D9D9"/>
<rect x="338" y="76" width="2" height="1" fill="#D9D9D9"/>
<rect x="336" y="76" width="2" height="1" fill="#D9D9D9"/>
<rect x="342" y="76" width="2" height="1" fill="#D9D9D9"/>
<rect x="344" y="76" width="2" height="1" fill="#D9D9D9"/>
<rect x="100" y="836" width="2" height="1" fill="#D9D9D9"/>
<rect x="100" y="835" width="2" height="1" fill="#D9D9D9"/>
<rect x="100" y="834" width="2" height="1" fill="#D9D9D9"/>
<rect x="100" y="837" width="2" height="1" fill="#D9D9D9"/>
<rect x="100" y="838" width="2" height="1" fill="#D9D9D9"/>
<rect x="98" y="836" width="2" height="1" fill="#D9D9D9"/>
<rect x="96" y="836" width="2" height="1" fill="#D9D9D9"/>
<rect x="102" y="836" width="2" height="1" fill="#D9D9D9"/>
<rect x="104" y="836" width="2" height="1" fill="#D9D9D9"/>
<rect x="300" y="676" width="2" height="1" fill="#D9D9D9"/>
<rect x="300" y="675" width="2" height="1" fill="#D9D9D9"/>
<rect x="300" y="674" width="2" height="1" fill="#D9D9D9"/>
<rect x="300" y="677" width="2" height="1" fill="#D9D9D9"/>
<rect x="300" y="678" width="2" height="1" fill="#D9D9D9"/>
<rect x="298" y="676" width="2" height="1" fill="#D9D9D9"/>
<rect x="296" y="676" width="2" height="1" fill="#D9D9D9"/>
<rect x="302" y="676" width="2" height="1" fill="#D9D9D9"/>
<rect x="304" y="676" width="2" height="1" fill="#D9D9D9"/>
<rect x="20" y="636" width="2" height="1" fill="#D9D9D9"/>
<rect x="20" y="635" width="2" height="1" fill="#D9D9D9"/>
<rect x="20" y="634" width="2" height="1" fill="#D9D9D9"/>
<rect x="20" y="637" width="2" height="1" fill="#D9D9D9"/>
<rect x="20" y="638" width="2" height="1" fill="#D9D9D9"/>
<rect x="18" y="636" width="2" height="1" fill="#D9D9D9"/>
<rect x="16" y="636" width="2" height="1" fill="#D9D9D9"/>
<rect x="22" y="636" width="2" height="1" fill="#D9D9D9"/>
<rect x="24" y="636" width="2" height="1" fill="#D9D9D9"/>
<rect x="60" y="716" width="2" height="1" fill="#D9D9D9"/>
<rect x="60" y="715" width="2" height="1" fill="#D9D9D9"/>
<rect x="60" y="714" width="2" height="1" fill="#D9D9D9"/>
<rect x="60" y="717" width="2" height="1" fill="#D9D9D9"/>
<rect x="60" y="718" width="2" height="1" fill="#D9D9D9"/>
<rect x="58" y="716" width="2" height="1" fill="#D9D9D9"/>
<rect x="56" y="716" width="2" height="1" fill="#D9D9D9"/>
<rect x="62" y="716" width="2" height="1" fill="#D9D9D9"/>
<rect x="64" y="716" width="2" height="1" fill="#D9D9D9"/>
<rect x="300" y="196" width="2" height="1" fill="#D9D9D9"/>
<rect x="300" y="195" width="2" height="1" fill="#D9D9D9"/>
<rect x="300" y="194" width="2" height="1" fill="#D9D9D9"/>
<rect x="300" y="197" width="2" height="1" fill="#D9D9D9"/>
<rect x="300" y="198" width="2" height="1" fill="#D9D9D9"/>
<rect x="298" y="196" width="2" height="1" fill="#D9D9D9"/>
<rect x="296" y="196" width="2" height="1" fill="#D9D9D9"/>
<rect x="302" y="196" width="2" height="1" fill="#D9D9D9"/>
<rect x="304" y="196" width="2" height="1" fill="#D9D9D9"/>
<rect x="340" y="236" width="2" height="1" fill="#D9D9D9"/>
<rect x="340" y="235" width="2" height="1" fill="#D9D9D9"/>
<rect x="340" y="234" width="2" height="1" fill="#D9D9D9"/>
<rect x="340" y="237" width="2" height="1" fill="#D9D9D9"/>
<rect x="340" y="238" width="2" height="1" fill="#D9D9D9"/>
<rect x="338" y="236" width="2" height="1" fill="#D9D9D9"/>
<rect x="336" y="236" width="2" height="1" fill="#D9D9D9"/>
<rect x="342" y="236" width="2" height="1" fill="#D9D9D9"/>
<rect x="344" y="236" width="2" height="1" fill="#D9D9D9"/>
<rect x="380" y="76" width="2" height="1" fill="#D9D9D9"/>
<rect x="380" y="75" width="2" height="1" fill="#D9D9D9"/>
<rect x="380" y="74" width="2" height="1" fill="#D9D9D9"/>
<rect x="380" y="77" width="2" height="1" fill="#D9D9D9"/>
<rect x="380" y="78" width="2" height="1" fill="#D9D9D9"/>
<rect x="378" y="76" width="2" height="1" fill="#D9D9D9"/>
<rect x="376" y="76" width="2" height="1" fill="#D9D9D9"/>
<rect x="382" y="76" width="2" height="1" fill="#D9D9D9"/>
<rect x="384" y="76" width="2" height="1" fill="#D9D9D9"/>
<rect x="380" y="796" width="2" height="1" fill="#D9D9D9"/>
<rect x="380" y="795" width="2" height="1" fill="#D9D9D9"/>
<rect x="380" y="794" width="2" height="1" fill="#D9D9D9"/>
<rect x="380" y="797" width="2" height="1" fill="#D9D9D9"/>
<rect x="380" y="798" width="2" height="1" fill="#D9D9D9"/>
<rect x="378" y="796" width="2" height="1" fill="#D9D9D9"/>
<rect x="376" y="796" width="2" height="1" fill="#D9D9D9"/>
<rect x="382" y="796" width="2" height="1" fill="#D9D9D9"/>
<rect x="384" y="796" width="2" height="1" fill="#D9D9D9"/>
<rect x="20" y="356" width="2" height="1" fill="#D9D9D9"/>
<rect x="20" y="355" width="2" height="1" fill="#D9D9D9"/>
<rect x="20" y="354" width="2" height="1" fill="#D9D9D9"/>
<rect x="20" y="357" width="2" height="1" fill="#D9D9D9"/>
<rect x="20" y="358" width="2" height="1" fill="#D9D9D9"/>
<rect x="18" y="356" width="2" height="1" fill="#D9D9D9"/>
<rect x="16" y="356" width="2" height="1" fill="#D9D9D9"/>
<rect x="22" y="356" width="2" height="1" fill="#D9D9D9"/>
<rect x="24" y="356" width="2" height="1" fill="#D9D9D9"/>
</g>
<defs>
<clipPath id="clip0_74_317">
<rect width="402" height="874" fill="white"/>
</clipPath>
</defs>
</svg>
